<?xml version="1.0" encoding="UTF-8" standalone="no"?>
<!-- Created with Inkscape (http://www.inkscape.org/) -->

<svg
   width="210mm"
   height="297mm"
   viewBox="0 0 210 297"
   version="1.1"
   id="svg5"
   inkscape:version="1.2 (dc2aedaf03, 2022-05-15)"
   sodipodi:docname="portal.svg"
   inkscape:export-filename="..\..\Users\chris\Downloads\portal_Layer 3.png"
   inkscape:export-xdpi="96"
   inkscape:export-ydpi="96"
   xmlns:inkscape="http://www.inkscape.org/namespaces/inkscape"
   xmlns:sodipodi="http://sodipodi.sourceforge.net/DTD/sodipodi-0.dtd"
   xmlns="http://www.w3.org/2000/svg"
   xmlns:svg="http://www.w3.org/2000/svg">
  <sodipodi:namedview
     id="namedview7"
     pagecolor="#ffffff"
     bordercolor="#000000"
     borderopacity="0.25"
     inkscape:showpageshadow="2"
     inkscape:pageopacity="0.0"
     inkscape:pagecheckerboard="0"
     inkscape:deskcolor="#d1d1d1"
     inkscape:document-units="mm"
     showgrid="false"
     inkscape:zoom="1.7852694"
     inkscape:cx="347.00646"
     inkscape:cy="429.06691"
     inkscape:window-width="2560"
     inkscape:window-height="1369"
     inkscape:window-x="1912"
     inkscape:window-y="-8"
     inkscape:window-maximized="1"
     inkscape:current-layer="g5892" />
  <defs
     id="defs2" />
  <g
     inkscape:label="Layer 3"
     inkscape:groupmode="layer"
     id="g5892"
     style="display:inline">
    <circle
       style="fill:#000000;fill-opacity:0.311615;stroke:#000000;stroke-width:0.1;stroke-opacity:1"
       id="circle5860"
       cx="101.51945"
       cy="92.627235"
       r="30.97455" />
    <path
       id="path5862"
       style="fill:#000000;fill-opacity:0.589235;stroke:#000000;stroke-width:0.0282053;stroke-opacity:1"
       d="m 102.09337,89.301864 c 0,2.533089 -0.51372,4.58657 -1.14743,4.58657 -0.6337,0 -1.147429,-2.053481 -1.147429,-4.58657 0,-2.533096 0.513729,-13.037381 1.147429,-13.037381 0.63371,0 1.14743,10.504285 1.14743,13.037381 z"
       sodipodi:nodetypes="sssss" />
    <path
       id="path5864"
       style="fill:#000000;fill-opacity:0.589235;stroke:#000000;stroke-width:0.0140184;stroke-opacity:1"
       d="m 99.569742,91.057389 c 1.129238,0 2.044678,0.28466 2.044678,0.635805 0,0.351146 -0.91544,0.635806 -2.044679,0.635806 -1.129245,0 -5.812019,-0.28466 -5.812019,-0.635805 0,-0.351146 4.682774,-0.635806 5.81202,-0.635806 z"
       sodipodi:nodetypes="sssss" />
    <path
       id="path5866"
       style="fill:#000000;fill-opacity:0.589235;stroke:#000000;stroke-width:0.0424753;stroke-opacity:1"
       d="m 109.67378,79.606527 c -2.18148,3.778431 -4.5357,6.503251 -5.2583,6.086051 -0.7226,-0.41719 0.46004,-3.81842 2.64152,-7.59685 2.18148,-3.778435 11.81347,-19.108709 12.53607,-18.691512 0.7226,0.417194 -7.73781,16.423876 -9.91929,20.202311 z"
       sodipodi:nodetypes="sssss" />
    <path
       id="path5868"
       style="fill:#000000;fill-opacity:0.589235;stroke:#000000;stroke-width:0.0185688;stroke-opacity:1"
       d="m 103.96731,93.336942 c -1.57746,-0.57655 -2.79072,-1.377526 -2.70988,-1.789027 0.0808,-0.411501 1.42515,-0.277707 3.00261,0.298838 1.57746,0.576551 8.05338,3.30099 7.97255,3.712493 -0.0808,0.411497 -6.68782,-1.645759 -8.26528,-2.222304 z"
       sodipodi:nodetypes="sssss" />
    <path
       id="path5870"
       style="fill:#000000;fill-opacity:0.589235;stroke:#000000;stroke-width:0.0321049;stroke-opacity:1"
       d="m 98.054687,97.313979 c 0.793109,-3.427976 1.894951,-6.064464 2.461023,-5.888815 0.56606,0.175673 0.38202,3.096977 -0.41109,6.524937 -0.79311,3.427959 -4.540913,17.500699 -5.106984,17.325039 -0.566067,-0.17566 2.26394,-14.53321 3.057051,-17.961161 z"
       sodipodi:nodetypes="sssss" />
    <path
       id="path5872"
       style="fill:#000000;fill-opacity:0.589235;stroke:#000000;stroke-width:0.0317529;stroke-opacity:1"
       d="m 101.36585,97.197457 c -0.93214,-2.853121 -1.14845,-5.284542 -0.48316,-5.430756 0.66529,-0.146193 1.96026,2.048187 2.89239,4.901294 0.93213,2.853114 4.25816,14.802995 3.59288,14.949215 -0.66529,0.14619 -5.06999,-11.56665 -6.00211,-14.419753 z"
       sodipodi:nodetypes="sssss" />
    <path
       id="path5874"
       style="fill:#000000;fill-opacity:0.589235;stroke:#000000;stroke-width:0.0424753;stroke-opacity:1"
       d="m 90.27453,97.498131 c 3.77844,-2.18148 7.179651,-3.36413 7.596852,-2.64153 0.417188,0.72259 -2.307613,3.07683 -6.086039,5.258309 -3.778432,2.18148 -19.785106,10.64188 -20.202328,9.9193 -0.417187,-0.72263 14.913093,-10.354609 18.691515,-12.536079 z"
       sodipodi:nodetypes="sssss" />
    <path
       id="path5876"
       style="fill:#000000;fill-opacity:0.589235;stroke:#000000;stroke-width:0.0359999;stroke-opacity:1"
       d="m 95.06837,83.822089 c 3.205333,1.84723 5.51685,3.840719 5.16294,4.452603 -0.35391,0.611873 -3.239251,-0.389548 -6.444578,-2.236765 -3.205327,-1.847225 -16.210327,-10.003357 -15.85644,-10.61525 0.353938,-0.611888 13.932761,6.552192 17.138078,8.399412 z"
       sodipodi:nodetypes="sssss" />
    <path
       id="path5878"
       style="fill:#000000;fill-opacity:0.589235;stroke:#000000;stroke-width:0.0104248;stroke-opacity:1"
       d="m 102.20899,92.398967 c -0.82338,0.6963 -1.61851,1.152812 -1.77597,1.019649 -0.15746,-0.133161 0.38235,-0.805574 1.20573,-1.501874 0.82338,-0.696297 4.36542,-3.47577 4.5229,-3.342615 0.15746,0.13317 -3.12928,3.128545 -3.95266,3.82484 z"
       sodipodi:nodetypes="sssss" />
    <path
       id="path5880"
       style="fill:#000000;fill-opacity:0.589235;stroke:#000000;stroke-width:0.0424753;stroke-opacity:1"
       d="m 109.56356,99.400293 c -3.77843,-2.1815 -6.50326,-4.5357 -6.08606,-5.258296 0.41717,-0.7226 3.81841,0.460026 7.59684,2.641496 3.77843,2.18149 19.10868,11.813457 18.69152,12.536087 -0.41722,0.72259 -16.42388,-7.73782 -20.2023,-9.919287 z"
       sodipodi:nodetypes="sssss" />
    <path
       id="path5882"
       style="fill:#000000;fill-opacity:0.589235;stroke:#000000;stroke-width:0.0424753;stroke-opacity:1"
       d="m 81.316057,83.8852 c 4.214299,1.129223 7.455578,2.697983 7.239628,3.503944 -0.215952,0.805946 -3.807377,0.543918 -8.021666,-0.585292 -4.214294,-1.129218 -21.51513,-6.465237 -21.299207,-7.271199 0.215981,-0.805974 17.866964,3.223334 22.081245,4.352547 z"
       sodipodi:nodetypes="sssss" />
    <path
       id="path5884"
       style="fill:#000000;fill-opacity:0.589235;stroke:#000000;stroke-width:0.0424753;stroke-opacity:1"
       d="m 94.337022,71.811041 c 2.181478,3.77844 3.364129,7.179652 2.641528,7.596852 -0.722591,0.417189 -3.07683,-2.307614 -5.258311,-6.086038 C 89.538762,69.543421 81.078358,53.536748 81.80094,53.119526 82.523571,52.702339 92.15555,68.032619 94.337022,71.811041 Z"
       sodipodi:nodetypes="sssss" />
    <path
       id="path5886"
       style="fill:#000000;fill-opacity:0.589235;stroke:#000000;stroke-width:0.0424753;stroke-opacity:1"
       d="m 121.02877,87.559931 c -4.2143,1.129211 -7.80571,1.391271 -8.02167,0.585315 -0.21595,-0.805949 3.02534,-2.374743 7.23962,-3.503953 4.2143,-1.129216 21.86526,-5.158517 22.08124,-4.352573 0.21594,0.805977 -17.08491,6.141998 -21.29919,7.271211 z"
       sodipodi:nodetypes="sssss" />
    <path
       id="path5888"
       style="fill:#000000;fill-opacity:0.589235;stroke:#000000;stroke-width:0.0424753;stroke-opacity:1"
       d="m 115.93678,112.37961 c -3.08506,-3.08508 -5.10772,-6.0643 -4.51772,-6.65431 0.58999,-0.58999 3.56925,1.43265 6.65431,4.51772 3.08509,3.08509 15.40004,16.35661 14.81006,16.94663 -0.59003,0.59 -13.86158,-11.72497 -16.94665,-14.81004 z"
       sodipodi:nodetypes="sssss" />
    <path
       id="path5890"
       style="fill:#000000;fill-opacity:0.589235;stroke:#000000;stroke-width:0.0424753;stroke-opacity:1"
       d="m 78.643958,95.31865 c 4.214288,-1.129201 7.805697,-1.391265 8.021661,-0.585304 0.215951,0.805941 -3.025336,2.374737 -7.239615,3.503936 -4.21431,1.12923 -21.86526,5.158518 -22.081238,4.352568 -0.215941,-0.80599 17.084908,-6.141986 21.299192,-7.2712 z"
       sodipodi:nodetypes="sssss" />
    <path
       id="path5894"
       style="fill:#000000;fill-opacity:0.589235;stroke:#000000;stroke-width:0.0424753;stroke-opacity:1"
       d="m 99.852312,121.10261 c 3e-5,-4.36294 0.676398,-7.89981 1.510798,-7.89981 0.83437,-1e-5 1.51081,3.53687 1.51079,7.89981 10e-6,4.36298 -0.67639,22.45534 -1.51078,22.45537 -0.8344,-2e-5 -1.510798,-18.09242 -1.510808,-22.45537 z"
       sodipodi:nodetypes="sssss" />
    <path
       id="path5896"
       style="fill:#000000;fill-opacity:0.589235;stroke:#000000;stroke-width:0.0424753;stroke-opacity:1"
       d="m 79.508971,115.27921 c 3.085088,-3.08505 6.064294,-5.10773 6.654307,-4.51772 0.589992,0.58999 -1.432645,3.56926 -4.517722,6.6543 -3.085082,3.08509 -16.356602,15.40004 -16.946626,14.81006 -0.589995,-0.59003 11.724977,-13.86156 14.810041,-16.94664 z"
       sodipodi:nodetypes="sssss" />
    <path
       id="path5898"
       style="fill:#000000;fill-opacity:0.589235;stroke:#000000;stroke-width:0.0424753;stroke-opacity:1"
       d="m 96.741427,63.69261 c 1.129216,4.214301 1.39127,7.805712 0.585313,8.021674 -0.805945,0.215953 -2.374738,-3.025327 -3.503959,-7.239613 -1.129214,-4.214295 -5.158505,-21.865268 -4.352559,-22.081255 0.805983,-0.215941 6.141992,17.084912 7.271205,21.299194 z"
       sodipodi:nodetypes="sssss" />
    <path
       id="path5900"
       style="fill:#000000;fill-opacity:0.589235;stroke:#000000;stroke-width:0.0424753;stroke-opacity:1"
       d="m 110.3871,66.016828 c -1.12922,4.214293 -2.69798,7.455584 -3.50394,7.239622 -0.80596,-0.215952 -0.54392,-3.807378 0.5853,-8.021669 1.12922,-4.214297 6.46524,-21.515147 7.2712,-21.299188 0.80595,0.215956 -3.22334,17.866938 -4.35256,22.081235 z"
       sodipodi:nodetypes="sssss" />
    <path
       id="path5902"
       style="fill:#000000;fill-opacity:0.589235;stroke:#000000;stroke-width:0.0424753;stroke-opacity:1"
       d="m 131.74907,99.965407 c -4.2143,-1.12924 -7.45559,-2.69798 -7.23963,-3.503934 0.21593,-0.805949 3.80737,-0.543926 8.02165,0.585283 4.2143,1.129228 21.51512,6.465234 21.2992,7.271214 -0.21598,0.80595 -17.86694,-3.22335 -22.08122,-4.352563 z"
       sodipodi:nodetypes="sssss" />
    <path
       id="path5904"
       style="fill:#000000;fill-opacity:0.589235;stroke:#000000;stroke-width:0.0424753;stroke-opacity:1"
       d="m 77.956,67.090281 c 3.085078,3.085085 5.107728,6.064311 4.51773,6.654318 -0.589994,0.589994 -3.569244,-1.432641 -6.654321,-4.51771 C 72.734332,66.14181 60.419378,52.870264 61.009354,52.280242 61.599386,51.690238 74.870932,64.005213 77.956,67.090281 Z"
       sodipodi:nodetypes="sssss" />
  </g>
  <g
     inkscape:label="Layer 2"
     inkscape:groupmode="layer"
     id="g5816"
     style="display:none">
    <circle
       style="fill:#000000;fill-opacity:0.311615;stroke:#000000;stroke-width:0.1;stroke-opacity:1"
       id="circle5794"
       cx="101.51945"
       cy="92.627235"
       r="30.97455" />
    <path
       id="path5796"
       style="fill:#000000;fill-opacity:0.589235;stroke:#000000;stroke-width:0.0424753;stroke-opacity:1"
       d="m 103.42006,74.273385 c 0,4.36295 -0.67641,7.89983 -1.5108,7.89983 -0.83439,0 -1.5108,-3.53688 -1.5108,-7.89983 0,-4.36296 0.67641,-22.45536 1.5108,-22.45536 0.83439,0 1.5108,18.0924 1.5108,22.45536 z"
       sodipodi:nodetypes="sssss" />
    <path
       id="path5798"
       style="fill:#000000;fill-opacity:0.589235;stroke:#000000;stroke-width:0.0265935;stroke-opacity:1"
       d="m 97.252561,91.063677 c 2.405513,0 4.355569,0.480904 4.355569,1.074127 0,0.593226 -1.950056,1.07413 -4.35557,1.07413 -2.405518,0 -12.380767,-0.480904 -12.380766,-1.074128 0,-0.593225 9.975248,-1.074129 12.380767,-1.074129 z"
       sodipodi:nodetypes="sssss" />
    <path
       id="path5800"
       style="fill:#000000;fill-opacity:0.589235;stroke:#000000;stroke-width:0.0424753;stroke-opacity:1"
       d="m 112.04504,73.826587 c -2.18148,3.778431 -4.5357,6.503251 -5.2583,6.086051 -0.7226,-0.41719 0.46004,-3.81842 2.64152,-7.59685 2.18148,-3.778435 11.81347,-19.108709 12.53607,-18.691512 0.7226,0.417194 -7.73781,16.423876 -9.91929,20.202311 z"
       sodipodi:nodetypes="sssss" />
    <path
       id="path5802"
       style="fill:#000000;fill-opacity:0.589235;stroke:#000000;stroke-width:0.0325614;stroke-opacity:1"
       d="m 106.5349,94.524334 c -3.06593,-0.912168 -5.42399,-2.179403 -5.26688,-2.830444 0.15711,-0.651042 2.76989,-0.439365 5.83582,0.472795 3.06592,0.91217 15.65239,5.222542 15.49529,5.873586 -0.15712,0.651035 -12.99831,-2.603777 -16.06423,-3.515937 z"
       sodipodi:nodetypes="sssss" />
    <path
       id="path5804"
       style="fill:#000000;fill-opacity:0.589235;stroke:#000000;stroke-width:0.0424753;stroke-opacity:1"
       d="m 95.088958,105.19284 c 1.129211,-4.21431 2.697988,-7.455575 3.503947,-7.239635 0.805952,0.21597 0.543908,3.807385 -0.585299,8.021675 -1.129212,4.21429 -6.465248,21.51514 -7.271206,21.29919 -0.805954,-0.21596 3.223345,-17.86695 4.352558,-22.08123 z"
       sodipodi:nodetypes="sssss" />
    <path
       id="path5806"
       style="fill:#000000;fill-opacity:0.589235;stroke:#000000;stroke-width:0.0424753;stroke-opacity:1"
       d="m 104.81546,107.65182 c -1.12923,-4.2143 -1.39127,-7.805715 -0.58532,-8.021685 0.80596,-0.21594 2.37474,3.025345 3.50396,7.239625 1.12922,4.21429 5.1585,21.86528 4.35255,22.08125 -0.80596,0.21594 -6.14198,-17.08491 -7.27119,-21.29919 z"
       sodipodi:nodetypes="sssss" />
    <path
       id="path5808"
       style="fill:#000000;fill-opacity:0.589235;stroke:#000000;stroke-width:0.0424753;stroke-opacity:1"
       d="m 82.123332,104.4637 c 3.77844,-2.18148 7.179651,-3.36413 7.596852,-2.64153 0.417188,0.72259 -2.307613,3.07683 -6.086039,5.25831 -3.778432,2.18148 -19.785106,10.64188 -20.202328,9.9193 -0.417187,-0.72263 14.913093,-10.35461 18.691515,-12.53608 z"
       sodipodi:nodetypes="sssss" />
    <path
       id="path5810"
       style="fill:#000000;fill-opacity:0.589235;stroke:#000000;stroke-width:0.0359999;stroke-opacity:1"
       d="m 95.06837,83.822089 c 3.205333,1.84723 5.51685,3.840719 5.16294,4.452603 -0.35391,0.611873 -3.239251,-0.389548 -6.444578,-2.236765 -3.205327,-1.847225 -16.210327,-10.003357 -15.85644,-10.61525 0.353938,-0.611888 13.932761,6.552192 17.138078,8.399412 z"
       sodipodi:nodetypes="sssss" />
    <path
       id="path5812"
       style="fill:#000000;fill-opacity:0.589235;stroke:#000000;stroke-width:0.0258846;stroke-opacity:1"
       d="m 104.5776,90.650054 c -1.90137,1.858999 -3.73749,3.077809 -4.10112,2.722286 -0.36361,-0.355517 0.88295,-2.150743 2.7843,-4.009743 1.90136,-1.858994 10.08072,-9.279708 10.44436,-8.924205 0.36362,0.355539 -7.22619,8.352675 -9.12754,10.211662 z"
       sodipodi:nodetypes="sssss" />
    <path
       id="path5814"
       style="fill:#000000;fill-opacity:0.589235;stroke:#000000;stroke-width:0.0424753;stroke-opacity:1"
       d="m 118.15937,105.03203 c -3.77843,-2.1815 -6.50326,-4.5357 -6.08606,-5.258296 0.41717,-0.7226 3.81841,0.460026 7.59684,2.641496 3.77843,2.18149 19.10868,11.81346 18.69152,12.53609 -0.41722,0.72259 -16.42388,-7.73782 -20.2023,-9.91929 z"
       sodipodi:nodetypes="sssss" />
    <path
       id="path5818"
       style="fill:#000000;fill-opacity:0.589235;stroke:#000000;stroke-width:0.0424753;stroke-opacity:1"
       d="m 72.720249,79.883703 c 4.214299,1.129223 7.455578,2.697983 7.239628,3.503944 -0.215952,0.805946 -3.807377,0.543918 -8.021666,-0.585292 -4.214294,-1.129218 -21.51513,-6.465237 -21.299207,-7.271199 0.215981,-0.805974 17.866964,3.223334 22.081245,4.352547 z"
       sodipodi:nodetypes="sssss" />
    <path
       id="path5820"
       style="fill:#000000;fill-opacity:0.589235;stroke:#000000;stroke-width:0.0424753;stroke-opacity:1"
       d="m 90.483729,63.215233 c 2.181478,3.77844 3.364129,7.179652 2.641528,7.596852 -0.722591,0.417189 -3.07683,-2.307614 -5.258311,-6.086038 -2.181477,-3.778434 -10.641881,-19.785107 -9.919299,-20.202329 0.722631,-0.417187 10.35461,14.913093 12.536082,18.691515 z"
       sodipodi:nodetypes="sssss" />
    <path
       id="path5822"
       style="fill:#000000;fill-opacity:0.589235;stroke:#000000;stroke-width:0.0424753;stroke-opacity:1"
       d="m 131.55123,85.04047 c -4.2143,1.129211 -7.80571,1.391271 -8.02167,0.585315 -0.21595,-0.805949 3.02534,-2.374743 7.23962,-3.503953 4.2143,-1.129216 21.86526,-5.158517 22.08124,-4.352573 0.21594,0.805977 -17.08491,6.141998 -21.29919,7.271211 z"
       sodipodi:nodetypes="sssss" />
    <path
       id="path5824"
       style="fill:#000000;fill-opacity:0.589235;stroke:#000000;stroke-width:0.0424753;stroke-opacity:1"
       d="m 121.71672,120.0862 c -3.08506,-3.08508 -5.10772,-6.0643 -4.51772,-6.65431 0.58999,-0.58999 3.56925,1.43265 6.65431,4.51772 3.08509,3.08509 15.40004,16.35661 14.81006,16.94663 -0.59003,0.59 -13.86158,-11.72497 -16.94665,-14.81004 z"
       sodipodi:nodetypes="sssss" />
    <path
       id="path5826"
       style="fill:#000000;fill-opacity:0.589235;stroke:#000000;stroke-width:0.0424753;stroke-opacity:1"
       d="m 69.158928,98.134518 c 4.214288,-1.129201 7.805697,-1.391265 8.021661,-0.585304 0.215951,0.805941 -3.025336,2.374737 -7.239615,3.503936 -4.21431,1.12923 -21.86526,5.15852 -22.081238,4.35257 -0.215941,-0.80599 17.084908,-6.141988 21.299192,-7.271202 z"
       sodipodi:nodetypes="sssss" />
  </g>
  <g
     inkscape:label="Layer 1"
     inkscape:groupmode="layer"
     id="layer1"
     style="display:none">
    <circle
       style="fill:#000000;fill-opacity:0.311615;stroke:#000000;stroke-width:0.1;stroke-opacity:1"
       id="path184"
       cx="101.51945"
       cy="92.627235"
       r="30.97455" />
    <path
       id="path5722"
       style="fill:#000000;fill-opacity:0.589235;stroke:#000000;stroke-width:0.0424753;stroke-opacity:1"
       d="m 103.27186,63.158116 c 0,4.36295 -0.67641,7.89983 -1.5108,7.89983 -0.83439,0 -1.5108,-3.53688 -1.5108,-7.89983 0,-4.36296 0.67641,-22.45536 1.5108,-22.45536 0.83439,0 1.5108,18.0924 1.5108,22.45536 z"
       sodipodi:nodetypes="sssss" />
    <path
       id="path5724"
       style="fill:#000000;fill-opacity:0.589235;stroke:#000000;stroke-width:0.0424753;stroke-opacity:1"
       d="m 89.254257,90.478803 c 4.362949,0 7.899829,0.676408 7.899828,1.510797 1e-6,0.834392 -3.536878,1.5108 -7.89983,1.5108 -4.362959,0 -22.45536,-0.676408 -22.455359,-1.510798 0,-0.83439 18.0924,-1.510798 22.455361,-1.510799 z"
       sodipodi:nodetypes="sssss" />
    <path
       id="path5778"
       style="fill:#000000;fill-opacity:0.589235;stroke:#000000;stroke-width:0.0424753;stroke-opacity:1"
       d="m 123.45672,60.636468 c -2.18148,3.778431 -4.5357,6.503251 -5.2583,6.086051 -0.7226,-0.41719 0.46004,-3.81842 2.64152,-7.59685 2.18148,-3.778435 11.81347,-19.108709 12.53607,-18.691512 0.7226,0.417194 -7.73781,16.423876 -9.91929,20.202311 z"
       sodipodi:nodetypes="sssss" />
    <path
       id="path5780"
       style="fill:#000000;fill-opacity:0.589235;stroke:#000000;stroke-width:0.0424753;stroke-opacity:1"
       d="m 118.14861,98.108539 c -4.2143,-1.129218 -7.45559,-2.69799 -7.23963,-3.503946 0.21596,-0.805956 3.80738,-0.543911 8.02167,0.585297 4.21429,1.129219 21.51514,6.46524 21.29919,7.2712 -0.21596,0.80595 -17.86694,-3.223343 -22.08123,-4.352551 z"
       sodipodi:nodetypes="sssss" />
    <path
       id="path5782"
       style="fill:#000000;fill-opacity:0.589235;stroke:#000000;stroke-width:0.0424753;stroke-opacity:1"
       d="m 93.458718,115.7153 c 1.129211,-4.21431 2.697988,-7.45558 3.503947,-7.23964 0.805952,0.21597 0.543908,3.80739 -0.585299,8.02168 -1.129212,4.21429 -6.465248,21.51514 -7.271206,21.29919 -0.805954,-0.21596 3.223345,-17.86695 4.352558,-22.08123 z"
       sodipodi:nodetypes="sssss" />
    <path
       id="path5784"
       style="fill:#000000;fill-opacity:0.589235;stroke:#000000;stroke-width:0.0424753;stroke-opacity:1"
       d="m 108.07594,119.80451 c -1.12923,-4.2143 -1.39127,-7.80571 -0.58532,-8.02168 0.80596,-0.21594 2.37474,3.02534 3.50396,7.23962 1.12922,4.21429 5.1585,21.86528 4.35255,22.08125 -0.80596,0.21594 -6.14198,-17.08491 -7.27119,-21.29919 z"
       sodipodi:nodetypes="sssss" />
    <path
       id="path5786"
       style="fill:#000000;fill-opacity:0.589235;stroke:#000000;stroke-width:0.0424753;stroke-opacity:1"
       d="m 72.193691,112.4667 c 3.77844,-2.18148 7.179651,-3.36413 7.596852,-2.64153 0.417188,0.72259 -2.307613,3.07683 -6.086039,5.25831 -3.778432,2.18148 -19.785106,10.64188 -20.202328,9.9193 -0.417187,-0.72263 14.913093,-10.35461 18.691515,-12.53608 z"
       sodipodi:nodetypes="sssss" />
    <path
       id="path5788"
       style="fill:#000000;fill-opacity:0.589235;stroke:#000000;stroke-width:0.0424753;stroke-opacity:1"
       d="m 89.096703,78.534527 c 3.778437,2.181486 6.503247,4.535697 6.086058,5.258302 -0.417187,0.722592 -3.818419,-0.460037 -7.59685,-2.641508 -3.778431,-2.18148 -19.10869,-11.813465 -18.691529,-12.53608 0.417222,-0.72261 16.423902,7.737812 20.202321,9.919286 z"
       sodipodi:nodetypes="sssss" />
    <path
       id="path5790"
       style="fill:#000000;fill-opacity:0.589235;stroke:#000000;stroke-width:0.0424753;stroke-opacity:1"
       d="m 117.84901,76.356561 c -3.0851,3.085078 -6.06432,5.10774 -6.65433,4.517736 -0.58999,-0.589995 1.43264,-3.569239 4.51771,-6.654319 3.08508,-3.08507 16.35662,-15.400023 16.94665,-14.810052 0.58999,0.59003 -11.72497,13.861576 -14.81003,16.946635 z"
       sodipodi:nodetypes="sssss" />
    <path
       id="path5792"
       style="fill:#000000;fill-opacity:0.589235;stroke:#000000;stroke-width:0.0424753;stroke-opacity:1"
       d="m 127.4962,110.21916 c -3.77843,-2.1815 -6.50326,-4.5357 -6.08606,-5.2583 0.41717,-0.7226 3.81841,0.46003 7.59684,2.6415 3.77843,2.18149 19.10868,11.81346 18.69152,12.53609 -0.41722,0.72259 -16.42388,-7.73782 -20.2023,-9.91929 z"
       sodipodi:nodetypes="sssss" />
  </g>
</svg>
